<?xml version="1.0" standalone="no"?><svg xmlns="http://www.w3.org/2000/svg" viewBox="0 0 1440 320"><path fill="#8bd3dd" fill-opacity="1" d="M0,96L34.3,112C68.6,128,137,160,206,154.7C274.3,149,343,107,411,80C480,53,549,43,617,53.3C685.7,64,754,96,823,122.7C891.4,149,960,171,1029,181.3C1097.1,192,1166,192,1234,165.3C1302.9,139,1371,85,1406,58.7L1440,32L1440,320L1405.7,320C1371.4,320,1303,320,1234,320C1165.7,320,1097,320,1029,320C960,320,891,320,823,320C754.3,320,686,320,617,320C548.6,320,480,320,411,320C342.9,320,274,320,206,320C137.1,320,69,320,34,320L0,320Z"></path></svg>